<svg viewBox="0 0 345 190.5" xmlns:xlink="http://www.w3.org/1999/xlink" version="1.1" xmlns="http://www.w3.org/2000/svg" style="max-height: 500px" width="345" height="190.5"><g transform="matrix(1,0,0,1,-0.9090909090909918,-0.3629983761528308)"><svg xmlns:xlink="http://www.w3.org/1999/xlink" xmlns="http://www.w3.org/2000/svg" width="1500" height="189" preserveAspectRatio="xMidYMid meet" data-background-color="#ffffff" viewBox="0 0 396 50"><g transform="matrix(1,0,0,1,0.2400000000000091,0.09603131644254859)" id="tight-bounds"><svg width="395.52" height="49.807937367114896" viewBox="0 0 395.52 49.807937367114896"><g><svg width="395.52" height="49.807937367114896" viewBox="0 0 527.5303117095152 66.43203055441478"><g transform="matrix(1,0,0,1,132.01031170951512,9.181271950718685)"><svg width="395.52000000000004" height="48.06948665297741" viewBox="0 0 395.52000000000004 48.06948665297741"><g id="textblocktransform"><svg id="textblock" width="395.52000000000004" height="48.06948665297741" viewBox="0 0 395.52000000000004 48.06948665297741"><g><svg width="395.52000000000004" height="48.06948665297741" viewBox="0 0 395.52000000000004 48.06948665297741"><g transform="matrix(1,0,0,1,0,0)"><svg data-palette-color="#dedede" height="48.06948665297741" viewBox="1.3 -37.5 389.57 47.35" width="395.52000000000004"><path id="text-0" data-fill-palette-color="primary" class="wordmark-text-0" fill="#dedede" transform="matrix(1,0,0,1,0,0)" opacity="1" d="M28.35-31.85L25.9-26.9Q24-28.1 22.15-28.8 20.3-29.5 18.65-29.8 17-30.1 15.65-30.1L15.65-30.1Q13.05-30.1 11.5-29.1 9.95-28.1 9.95-26.2L9.95-26.2Q9.95-24.5 10.98-23.43 12-22.35 13.68-21.68 15.35-21 17.38-20.4 19.4-19.8 21.4-19.07 23.4-18.35 25.1-17.2 26.8-16.05 27.8-14.28 28.8-12.5 28.8-9.8L28.8-9.8Q28.8-6.7 27.1-4.42 25.4-2.15 22.43-0.9 19.45 0.35 15.6 0.35L15.6 0.35Q12.85 0.35 10.25-0.38 7.65-1.1 5.38-2.35 3.1-3.6 1.3-5.25L1.3-5.25 3.85-10.1Q5.65-8.45 7.68-7.3 9.7-6.15 11.78-5.55 13.85-4.95 15.7-4.95L15.7-4.95Q18.8-4.95 20.53-6.15 22.25-7.35 22.25-9.5L22.25-9.5Q22.25-11.25 21.23-12.33 20.2-13.4 18.53-14.1 16.85-14.8 14.83-15.35 12.8-15.9 10.78-16.63 8.75-17.35 7.08-18.45 5.4-19.55 4.38-21.3 3.35-23.05 3.35-25.75L3.35-25.75Q3.35-28.7 4.95-30.88 6.55-33.05 9.43-34.25 12.3-35.45 16.1-35.45L16.1-35.45Q19.5-35.45 22.7-34.45 25.9-33.45 28.35-31.85L28.35-31.85ZM35.35 0L35.35-26.55 41.05-26.55 41.05 0 35.35 0ZM38.2-37.5L38.2-37.5Q39.65-37.5 40.6-36.55 41.55-35.6 41.55-34.15L41.55-34.15Q41.55-32.75 40.6-31.78 39.65-30.8 38.2-30.8L38.2-30.8Q36.8-30.8 35.82-31.78 34.85-32.75 34.85-34.15L34.85-34.15Q34.85-35.6 35.82-36.55 36.8-37.5 38.2-37.5ZM68.9 0L68.9-15Q68.9-18.15 67.25-19.93 65.59-21.7 62.65-21.7L62.65-21.7Q59.2-21.6 57.22-19.15 55.25-16.7 55.25-13.1L55.25-13.1 53.65-13.1Q53.65-18 55.02-21 56.4-24 58.92-25.38 61.45-26.75 64.9-26.75L64.9-26.75Q67.95-26.75 70.12-25.5 72.3-24.25 73.47-21.98 74.65-19.7 74.65-16.5L74.65-16.5 74.65 0 68.9 0ZM88.25 0L88.25-15Q88.25-18.15 86.57-19.93 84.9-21.7 81.94-21.7L81.94-21.7Q78.55-21.6 76.59-19.15 74.65-16.7 74.65-13.1L74.65-13.1 73-13.1Q73-18 74.37-21 75.75-24 78.27-25.38 80.8-26.75 84.25-26.75L84.25-26.75Q87.3-26.75 89.47-25.5 91.65-24.25 92.82-21.98 94-19.7 94-16.5L94-16.5 94 0 88.25 0ZM49.55 0L49.55-26.55 55.25-26.55 55.25 0 49.55 0ZM116.99-26.75L116.99-26.75Q120.79-26.75 123.64-25.05 126.49-23.35 128.09-20.3 129.69-17.25 129.69-13.2L129.69-13.2Q129.69-9.25 128.12-6.23 126.54-3.2 123.72-1.5 120.89 0.2 117.09 0.2L117.09 0.2Q113.44 0.2 110.87-1.4 108.29-3 106.94-6.03 105.59-9.05 105.59-13.2L105.59-13.2Q105.59-17.5 106.94-20.53 108.29-23.55 110.87-25.15 113.44-26.75 116.99-26.75ZM115.79-22.2L115.79-22.2Q113.44-22.2 111.59-21.05 109.74-19.9 108.72-17.93 107.69-15.95 107.69-13.35L107.69-13.35Q107.69-10.75 108.72-8.72 109.74-6.7 111.59-5.58 113.44-4.45 115.79-4.45L115.79-4.45Q118.19-4.45 120.02-5.6 121.84-6.75 122.87-8.75 123.89-10.75 123.89-13.35L123.89-13.35Q123.89-15.9 122.87-17.9 121.84-19.9 120.02-21.05 118.19-22.2 115.79-22.2ZM101.94 9.7L101.94-26.55 107.69-26.55 107.69 9.7 101.94 9.7ZM135.94 0L135.94-37.1 141.69-37.1 141.69 0 135.94 0ZM152.59-15.2L168.84-15.2Q168.74-17.45 167.81-19.03 166.89-20.6 165.24-21.48 163.59-22.35 161.44-22.35L161.44-22.35Q159.04-22.35 157.26-21.25 155.49-20.15 154.49-18.18 153.49-16.2 153.49-13.55L153.49-13.55Q153.49-10.7 154.56-8.6 155.64-6.5 157.56-5.35 159.49-4.2 161.99-4.2L161.99-4.2Q166.44-4.2 169.49-7.35L169.49-7.35 172.54-4.3Q170.59-2.15 167.79-0.98 164.99 0.2 161.54 0.2L161.54 0.2Q157.44 0.2 154.39-1.5 151.34-3.2 149.64-6.23 147.94-9.25 147.94-13.25L147.94-13.25Q147.94-17.25 149.64-20.28 151.34-23.3 154.39-25 157.44-26.7 161.39-26.75L161.39-26.75Q166.09-26.75 168.94-24.83 171.79-22.9 172.99-19.4 174.19-15.9 173.84-11.1L173.84-11.1 152.59-11.1 152.59-15.2ZM208.63-26.75L208.63-26.75Q212.43-26.75 215.28-25.05 218.13-23.35 219.73-20.3 221.33-17.25 221.33-13.2L221.33-13.2Q221.33-9.25 219.76-6.23 218.18-3.2 215.36-1.5 212.53 0.2 208.73 0.2L208.73 0.2Q205.08 0.2 202.51-1.4 199.93-3 198.58-6.03 197.23-9.05 197.23-13.2L197.23-13.2Q197.23-17.5 198.58-20.53 199.93-23.55 202.51-25.15 205.08-26.75 208.63-26.75ZM207.43-22.2L207.43-22.2Q205.08-22.2 203.23-21.05 201.38-19.9 200.36-17.93 199.33-15.95 199.33-13.35L199.33-13.35Q199.33-10.75 200.36-8.72 201.38-6.7 203.23-5.58 205.08-4.45 207.43-4.45L207.43-4.45Q209.83-4.45 211.66-5.6 213.48-6.75 214.51-8.75 215.53-10.75 215.53-13.35L215.53-13.35Q215.53-15.9 214.51-17.9 213.48-19.9 211.66-21.05 209.83-22.2 207.43-22.2ZM193.58 0L193.58-37.1 199.33-37.1 199.33 0 193.58 0ZM243.98-11.85L236.03-11.85Q233.23-11.85 231.88-11 230.53-10.15 230.53-8.2L230.53-8.2Q230.53-6.35 231.91-5.25 233.28-4.15 235.68-4.15L235.68-4.15Q237.83-4.15 239.53-4.9 241.23-5.65 242.23-6.93 243.23-8.2 243.28-9.8L243.28-9.8 244.38-4.95Q243.13-2.35 240.58-1.05 238.03 0.25 234.48 0.25L234.48 0.25Q231.63 0.25 229.53-0.85 227.43-1.95 226.28-3.83 225.13-5.7 225.13-8L225.13-8Q225.13-11.6 227.76-13.75 230.38-15.9 235.18-15.95L235.18-15.95 243.98-15.95 243.98-11.85ZM243.28 0L243.23-16.85Q243.23-19.45 241.63-20.9 240.03-22.35 236.88-22.35L236.88-22.35Q234.98-22.35 233.01-21.65 231.03-20.95 229.03-19.6L229.03-19.6 226.68-23.3Q228.53-24.45 230.18-25.2 231.83-25.95 233.71-26.35 235.58-26.75 238.13-26.75L238.13-26.75Q243.28-26.75 246.06-24.28 248.83-21.8 248.88-17.45L248.88-17.45 248.93 0 243.28 0ZM276.33 0L276.33-15Q276.33-18.1 274.63-19.88 272.93-21.65 269.93-21.65L269.93-21.65Q266.38-21.6 264.35-19.15 262.33-16.7 262.33-13.05L262.33-13.05 260.73-13.05Q260.73-18 262.13-21 263.53-24 266.1-25.38 268.68-26.75 272.18-26.75L272.18-26.75Q275.28-26.75 277.5-25.5 279.73-24.25 280.9-21.98 282.08-19.7 282.08-16.5L282.08-16.5 282.08 0 276.33 0ZM256.63 0L256.63-26.55 262.38-26.55 262.38 0 256.63 0ZM290.03 0L290.03-37.1 295.78-37.1 295.78 0 290.03 0ZM295.33-13.9L307.53-26.55 314.13-26.55 295.33-7.05 295.33-13.9ZM299.48-13.65L303.73-17.1 314.88 0 308.08 0 299.48-13.65ZM319.52 0L319.52-26.55 325.22-26.55 325.22 0 319.52 0ZM322.37-37.5L322.37-37.5Q323.82-37.5 324.77-36.55 325.72-35.6 325.72-34.15L325.72-34.15Q325.72-32.75 324.77-31.78 323.82-30.8 322.37-30.8L322.37-30.8Q320.97-30.8 320-31.78 319.02-32.75 319.02-34.15L319.02-34.15Q319.02-35.6 320-36.55 320.97-37.5 322.37-37.5ZM353.42 0L353.42-15Q353.42-18.1 351.72-19.88 350.02-21.65 347.02-21.65L347.02-21.65Q343.47-21.6 341.45-19.15 339.42-16.7 339.42-13.05L339.42-13.05 337.82-13.05Q337.82-18 339.22-21 340.62-24 343.2-25.38 345.77-26.75 349.27-26.75L349.27-26.75Q352.37-26.75 354.6-25.5 356.82-24.25 358-21.98 359.17-19.7 359.17-16.5L359.17-16.5 359.17 0 353.42 0ZM333.72 0L333.72-26.55 339.47-26.55 339.47 0 333.72 0ZM390.87-26.55L390.87-2.65Q390.87 1.2 389.17 4 387.47 6.8 384.37 8.33 381.27 9.85 377.07 9.85L377.07 9.85Q373.97 9.85 371.22 8.93 368.47 8 366.02 6.35L366.02 6.35 368.47 2.4Q370.37 3.8 372.37 4.58 374.37 5.35 376.82 5.35L376.82 5.35Q379.37 5.35 381.24 4.38 383.12 3.4 384.14 1.65 385.17-0.1 385.17-2.5L385.17-2.5 385.17-26.55 390.87-26.55ZM376.17-26.75L376.17-26.75Q379.67-26.8 382.14-25.28 384.62-23.75 385.92-20.9 387.22-18.05 387.17-14.05L387.17-14.05Q387.22-10.05 385.94-7.18 384.67-4.3 382.24-2.78 379.82-1.25 376.37-1.25L376.37-1.25Q372.77-1.25 370.07-2.88 367.37-4.5 365.87-7.4 364.37-10.3 364.37-14.1L364.37-14.1Q364.37-17.85 365.84-20.68 367.32-23.5 369.99-25.13 372.67-26.75 376.17-26.75ZM377.52-22.35L377.52-22.35Q375.27-22.35 373.52-21.28 371.77-20.2 370.79-18.3 369.82-16.4 369.77-13.95L369.77-13.95Q369.82-11.5 370.79-9.6 371.77-7.7 373.49-6.63 375.22-5.55 377.52-5.55L377.52-5.55Q379.77-5.55 381.49-6.63 383.22-7.7 384.19-9.6 385.17-11.5 385.17-13.95L385.17-13.95Q385.17-16.45 384.19-18.32 383.22-20.2 381.49-21.28 379.77-22.35 377.52-22.35Z"/></svg></g></svg></g></svg></g></svg></g><g><svg width="120.66225957842683" height="66.43203055441478" viewBox="0 0 120.66225957842683 66.43203055441478"><g><svg id="icon-0" data-fill-palette-color="accent" class="icon-icon-0" width="120.66225957842683" height="66.43203055441478" xml:space="preserve" viewBox="1.39 20.99 87.22 48.02000000000001" y="0" x="0" version="1.1" xmlns:xlink="http://www.w3.org/1999/xlink" xmlns="http://www.w3.org/2000/svg"><rect data-fill-palette-color="accent" fill="#dedede" height="23.52" width="23.52" y="45.49" x="1.39"/><polygon data-fill-palette-color="accent" fill="#dedede" points="43.294,33.24 25.263,44.51 2.604,44.51 20.638,33.24"/><polygon data-fill-palette-color="accent" fill="#dedede" points="64.108,44.727 25.89,68.617 25.89,45.273 64.108,21.382"/><polygon data-fill-palette-color="accent" fill="#dedede" points="64.728,45.49 87.394,45.49 69.36,56.76 46.704,56.76"/><rect data-fill-palette-color="accent" fill="#dedede" height="23.52" width="23.521" y="20.99" x="65.089"/></svg></g></svg></g></svg></g><defs/></svg><rect visibility="hidden" stroke="none" fill="none" height="49.807937367114896" width="395.52"/></g></svg></g></svg>